<svg width="26" height="22" viewBox="0 0 26 22" fill="none" xmlns="http://www.w3.org/2000/svg">
<path fill-rule="evenodd" clip-rule="evenodd" d="M17.7785 0C18.498 2.44487e-05 19.2033 0.200381 19.8154 0.578627C20.4275 0.956872 20.9222 1.49807 21.244 2.14158L23.0343 5.72079C23.3495 5.59163 23.6595 5.45212 23.9643 5.30229C24.2709 5.14916 24.6258 5.1241 24.9508 5.23262C25.2759 5.34114 25.5446 5.57436 25.6977 5.88096C25.8508 6.18756 25.8759 6.54243 25.7674 6.86751C25.6589 7.19259 25.4256 7.46125 25.119 7.61438C24.8086 7.75255 24.4964 7.8869 24.1826 8.01737L25.4239 10.5013C25.6933 11.0398 25.8335 11.6338 25.8333 12.236V15.5C25.8333 16.0452 25.7183 16.5842 25.4957 17.0819C25.2731 17.5796 24.948 18.0247 24.5417 18.3882V20.0208C24.5417 20.5347 24.3375 21.0275 23.9742 21.3909C23.6108 21.7542 23.118 21.9583 22.6042 21.9583C22.0903 21.9583 21.5975 21.7542 21.2341 21.3909C20.8708 21.0275 20.6667 20.5347 20.6667 20.0208V19.375H5.16667V20.0208C5.16667 20.5347 4.96254 21.0275 4.59919 21.3909C4.23583 21.7542 3.74302 21.9583 3.22917 21.9583C2.71531 21.9583 2.2225 21.7542 1.85915 21.3909C1.4958 21.0275 1.29167 20.5347 1.29167 20.0208V18.3882C0.498583 17.6778 0 16.647 0 15.5V12.2347C0.000241385 11.6333 0.140425 11.0403 0.409458 10.5025L1.64042 8.03804C1.32869 7.90715 1.02085 7.76636 0.716875 7.61567C0.411824 7.46055 0.179942 7.19177 0.071213 6.86728C-0.0375156 6.54278 -0.0143827 6.18856 0.135625 5.88096C0.211393 5.7291 0.316345 5.59365 0.444484 5.48237C0.572622 5.37109 0.721435 5.28615 0.882417 5.23241C1.0434 5.17867 1.21339 5.15718 1.38268 5.16917C1.55197 5.18116 1.71724 5.2264 1.86904 5.30229C2.17474 5.45299 2.48474 5.59249 2.79904 5.72079L4.58929 2.14287C4.91098 1.49912 5.40558 0.957658 6.01768 0.579176C6.62977 0.200694 7.33517 0.000144388 8.05483 0H17.7785ZM7.10417 11.625C6.59031 11.625 6.0975 11.8291 5.73415 12.1925C5.3708 12.5558 5.16667 13.0486 5.16667 13.5625C5.16667 14.0764 5.3708 14.5692 5.73415 14.9325C6.0975 15.2959 6.59031 15.5 7.10417 15.5C7.61802 15.5 8.11083 15.2959 8.47419 14.9325C8.83754 14.5692 9.04167 14.0764 9.04167 13.5625C9.04167 13.0486 8.83754 12.5558 8.47419 12.1925C8.11083 11.8291 7.61802 11.625 7.10417 11.625ZM18.7292 11.625C18.2153 11.625 17.7225 11.8291 17.3591 12.1925C16.9958 12.5558 16.7917 13.0486 16.7917 13.5625C16.7917 14.0764 16.9958 14.5692 17.3591 14.9325C17.7225 15.2959 18.2153 15.5 18.7292 15.5C19.243 15.5 19.7358 15.2959 20.0992 14.9325C20.4625 14.5692 20.6667 14.0764 20.6667 13.5625C20.6667 13.0486 20.4625 12.5558 20.0992 12.1925C19.7358 11.8291 19.243 11.625 18.7292 11.625ZM17.7785 2.58333H8.05483C7.84223 2.5833 7.63292 2.63575 7.44545 2.73602C7.25798 2.83628 7.09816 2.98128 6.98017 3.15813L6.90008 3.29763L5.25967 6.57587C7.25917 7.17521 9.95358 7.75 12.9167 7.75C15.6834 7.75 18.2138 7.24883 20.1629 6.69471L20.5724 6.57587L18.9333 3.29763C18.8382 3.10751 18.6977 2.94379 18.5242 2.821C18.3507 2.6982 18.1496 2.62011 17.9387 2.59367L17.7798 2.58333H17.7785Z" fill="black"/>
</svg>
