<svg width="61" height="61" viewBox="0 0 61 61" fill="none" xmlns="http://www.w3.org/2000/svg">
<circle cx="30.5" cy="25.5" r="22.5" fill="#9747FF"/>
<path fill-rule="evenodd" clip-rule="evenodd" d="M21.5714 20.1594C20.5852 20.1594 19.7857 20.9474 19.7857 21.9194V32.4799C19.7857 33.4519 20.5852 34.2399 21.5714 34.2399H39.4286C40.4148 34.2399 41.2143 33.4519 41.2143 32.4799V21.9194C41.2143 20.9474 40.4148 20.1594 39.4286 20.1594H21.5714ZM18 21.9194C18 19.9753 19.599 18.3993 21.5714 18.3993H39.4286C41.401 18.3993 43 19.9753 43 21.9194V32.4799C43 34.424 41.401 36 39.4286 36H21.5714C19.599 36 18 34.424 18 32.4799V21.9194Z" fill="white"/>
<path fill-rule="evenodd" clip-rule="evenodd" d="M35.699 14.0625C36.2286 13.9644 36.7736 13.982 37.2956 14.1141C37.8206 14.247 38.3093 14.4924 38.7269 14.8329C39.1446 15.1734 39.4808 15.6005 39.7117 16.0839C39.9425 16.5672 40.0623 17.0948 40.0625 17.629V19.2793H38.2768V17.6293C38.2767 17.3542 38.2149 17.0825 38.0961 16.8336C37.9771 16.5846 37.8039 16.3646 37.5888 16.1891C37.3736 16.0137 37.1218 15.8873 36.8514 15.8188C36.581 15.7504 36.2986 15.7416 36.0243 15.7931C36.0187 15.7942 36.013 15.7952 36.0074 15.7961L21.3202 18.2669C20.8893 18.3497 20.5007 18.5772 20.2208 18.9108C19.9393 19.2464 19.7854 19.6683 19.7857 20.1038L19.7857 22.7995H18V20.1044C17.9996 19.2593 18.2983 18.4405 18.8446 17.7892C19.3911 17.1378 20.1511 16.6948 20.9936 16.5365C20.9992 16.5355 21.0048 16.5345 21.0105 16.5335L35.699 14.0625Z" fill="white"/>
<path d="M36.75 28.9597C36.3968 28.9597 36.0516 28.8565 35.7579 28.6631C35.4643 28.4697 35.2354 28.1948 35.1002 27.8732C34.9651 27.5516 34.9297 27.1977 34.9986 26.8563C35.0675 26.5149 35.2376 26.2012 35.4873 25.9551C35.737 25.7089 36.0552 25.5413 36.4016 25.4734C36.748 25.4055 37.1071 25.4403 37.4334 25.5736C37.7597 25.7068 38.0385 25.9324 38.2348 26.2218C38.431 26.5112 38.5357 26.8515 38.5357 27.1996C38.5357 27.6664 38.3476 28.1141 38.0127 28.4442C37.6778 28.7743 37.2236 28.9597 36.75 28.9597Z" fill="white"/>
</svg>
