<svg width="44" height="44" viewBox="0 0 44 44" fill="none" xmlns="http://www.w3.org/2000/svg">
    <circle cx="22" cy="22" r="22" fill="#329C98"/>
    <path d="M31 24.5C30.2 23.7 29.75 22.6 29.75 21.5C29.75 20.4 30.2 19.3 31 18.5C31.8 17.7 32.25 16.6 32.25 15.5C32.25 14.4 31.8 13.3 31 12.5L30.65 12.15C29.85 11.35 28.75 10.9 27.65 10.9C26.55 10.9 25.45 11.35 24.65 12.15C24.25 12.55 23.8 12.85 23.25 13.05C22.75 13.25 22.2 13.35 21.65 13.35C21.1 13.35 20.55 13.25 20.05 13.05C19.5 12.85 19.05 12.55 18.65 12.15C17.85 11.35 16.75 10.9 15.65 10.9C14.55 10.9 13.45 11.35 12.65 12.15L12.3 12.5C11.5 13.3 11.05 14.4 11.05 15.5C11.05 16.6 11.5 17.7 12.3 18.5C12.7 18.9 13 19.35 13.2 19.9C13.4 20.4 13.5 20.95 13.5 21.5C13.5 22.05 13.4 22.6 13.2 23.1C13 23.65 12.7 24.1 12.3 24.5C11.5 25.3 11.05 26.4 11.05 27.5C11.05 28.6 11.5 29.7 12.3 30.5L12.65 30.85C13.45 31.65 14.55 32.1 15.65 32.1C16.75 32.1 17.85 31.65 18.65 30.85C19.05 30.45 19.5 30.15 20.05 29.95C20.55 29.75 21.1 29.65 21.65 29.65C22.2 29.65 22.75 29.75 23.25 29.95C23.8 30.15 24.25 30.45 24.65 30.85C25.45 31.65 26.55 32.1 27.65 32.1C28.75 32.1 29.85 31.65 30.65 30.85L31 30.5C31.8 29.7 32.25 28.6 32.25 27.5C32.25 26.4 31.8 25.3 31 24.5Z" 
        stroke="white" stroke-width="1.5" stroke-linecap="round" stroke-linejoin="round"/>
</svg> 