<svg width="44" height="44" viewBox="0 0 44 44" fill="none" xmlns="http://www.w3.org/2000/svg">
<circle cx="21.6818" cy="21.6818" r="21.6818" fill="#8D6CD9"/>
<path d="M16.1818 31.3636C15.6318 31.3636 15.1611 31.168 14.7698 30.7766C14.3784 30.3853 14.1824 29.9143 14.1818 29.3636V13.3636C14.1818 12.8136 14.3778 12.343 14.7698 11.9516C15.1618 11.5603 15.6324 11.3643 16.1818 11.3636H28.1818C28.7318 11.3636 29.2028 11.5596 29.5948 11.9516C29.9868 12.3436 30.1824 12.8143 30.1818 13.3636V29.3636C30.1818 29.9136 29.9861 30.3846 29.5948 30.7766C29.2034 31.1686 28.7324 31.3643 28.1818 31.3636H16.1818ZM16.1818 29.3636H28.1818V13.3636H26.1818V20.3636L23.6818 18.8636L21.1818 20.3636V13.3636H16.1818V29.3636Z" fill="white"/>
</svg>
