<svg width="48" height="48" viewBox="0 0 48 48" fill="none" xmlns="http://www.w3.org/2000/svg">
<circle cx="24" cy="24" r="24" fill="#F866A4"/>
<path d="M22.146 15.248C22.2954 14.8787 22.5517 14.5625 22.882 14.3398C23.2123 14.1171 23.6016 13.9981 24 13.9981C24.3984 13.9981 24.7877 14.1171 25.118 14.3398C25.4483 14.5625 25.7046 14.8787 25.854 15.248C27.333 15.6542 28.6377 16.535 29.5674 17.7549C30.4971 18.9747 31.0004 20.4662 31 22V26.697L32.832 29.445C32.9325 29.5956 32.9902 29.7707 32.999 29.9515C33.0078 30.1323 32.9673 30.3121 32.8819 30.4718C32.7965 30.6314 32.6693 30.7648 32.514 30.8579C32.3587 30.9509 32.181 31 32 31H27.465C27.3446 31.8331 26.9281 32.5949 26.2917 33.1459C25.6553 33.6969 24.8418 34.0002 24 34.0002C23.1582 34.0002 22.3447 33.6969 21.7083 33.1459C21.0719 32.5949 20.6554 31.8331 20.535 31H16C15.819 31 15.6413 30.9509 15.486 30.8579C15.3307 30.7648 15.2035 30.6314 15.1181 30.4718C15.0327 30.3121 14.9922 30.1323 15.001 29.9515C15.0098 29.7707 15.0675 29.5956 15.168 29.445L17 26.697V22C17 18.776 19.18 16.06 22.146 15.248ZM22.586 31C22.6893 31.2926 22.8808 31.5461 23.1341 31.7253C23.3875 31.9046 23.6902 32.0008 24.0005 32.0008C24.3108 32.0008 24.6135 31.9046 24.8669 31.7253C25.1202 31.5461 25.3117 31.2926 25.415 31H22.586ZM24 17C22.6739 17 21.4021 17.5268 20.4645 18.4645C19.5268 19.4021 19 20.6739 19 22V27C19 27.1975 18.9416 27.3907 18.832 27.555L17.869 29H30.13L29.167 27.555C29.0578 27.3905 28.9997 27.1974 29 27V22C29 20.6739 28.4732 19.4021 27.5355 18.4645C26.5978 17.5268 25.3261 17 24 17Z" fill="white"/>
</svg>
