<svg width="44" height="44" viewBox="0 0 44 44" fill="none" xmlns="http://www.w3.org/2000/svg">
<circle cx="21.6818" cy="21.6818" r="21.6818" fill="#4ABF75"/>
<path d="M17.6569 12.0888C16.1536 12.0871 14.7095 12.6742 13.6338 13.7244C12.5582 14.7745 11.9365 16.2041 11.9021 17.707C11.8677 19.2099 12.4232 20.6665 13.4496 21.7648C14.476 22.8631 15.8918 23.5158 17.3936 23.583C17.2394 24.1417 17.1419 24.7147 17.1026 25.293C15.6754 25.1869 14.3086 24.6733 13.1646 23.8132C12.0207 22.9531 11.1477 21.7827 10.6495 20.441C10.1512 19.0993 10.0486 17.6428 10.3538 16.2446C10.659 14.8463 11.3592 13.565 12.3712 12.553C13.3832 11.541 14.6645 10.8408 16.0627 10.5356C17.461 10.2304 18.9175 10.333 20.2592 10.8313C21.6009 11.3296 22.7713 12.2025 23.6314 13.3465C24.4915 14.4904 25.0051 15.8572 25.1112 17.2844C24.5328 17.3237 23.9599 17.4212 23.4011 17.5754C23.3334 16.0975 22.6986 14.7026 21.6287 13.6807C20.5589 12.6589 19.1364 12.0887 17.6569 12.0888ZM24.3016 23.2828C24.2211 23.2031 24.1257 23.14 24.0208 23.0971C23.9159 23.0542 23.8036 23.0324 23.6903 23.033C23.577 23.0335 23.4649 23.0564 23.3605 23.1002C23.256 23.1441 23.1612 23.2081 23.0814 23.2886C23.0017 23.369 22.9386 23.4645 22.8957 23.5693C22.8529 23.6742 22.8311 23.7865 22.8316 23.8998C22.8321 24.0131 22.855 24.1252 22.8988 24.2297C22.9427 24.3341 23.0067 24.429 23.0872 24.5087L24.4844 25.8921L23.0849 27.2917C23.0001 27.3706 22.9322 27.4659 22.885 27.5717C22.8379 27.6775 22.8125 27.7917 22.8105 27.9075C22.8085 28.0233 22.8298 28.1383 22.8731 28.2457C22.9165 28.3531 22.9811 28.4507 23.063 28.5326C23.1449 28.6145 23.2424 28.679 23.3498 28.7224C23.4572 28.7658 23.5723 28.7871 23.6881 28.7851C23.8039 28.783 23.9181 28.7577 24.0239 28.7105C24.1297 28.6634 24.2249 28.5954 24.3039 28.5107L25.7069 27.1088L27.1041 28.5107C27.2658 28.6726 27.4851 28.7637 27.7139 28.764C27.9428 28.7642 28.1623 28.6735 28.3243 28.5118C28.4862 28.3502 28.5773 28.1308 28.5775 27.902C28.5777 27.6732 28.4871 27.4536 28.3254 27.2917L26.9282 25.8921L28.322 24.5075C28.4797 24.3454 28.5674 24.1278 28.5662 23.9016C28.565 23.6754 28.475 23.4587 28.3156 23.2983C28.1562 23.1378 27.9401 23.0464 27.7139 23.0437C27.4878 23.041 27.2696 23.1273 27.1064 23.284L25.7069 24.6743L24.3016 23.2828ZM25.7069 18.4137C23.7244 18.4137 21.8231 19.2013 20.4213 20.6031C19.0194 22.0049 18.2319 23.9062 18.2319 25.8887C18.2319 27.8712 19.0194 29.7725 20.4213 31.1743C21.8231 32.5761 23.7244 33.3636 25.7069 33.3636C27.6893 33.3636 29.5906 32.5761 30.9925 31.1743C32.3943 29.7725 33.1818 27.8712 33.1818 25.8887C33.1818 23.9062 32.3943 22.0049 30.9925 20.6031C29.5906 19.2013 27.6893 18.4137 25.7069 18.4137ZM19.9569 25.8887C19.9569 24.3637 20.5627 22.9012 21.641 21.8228C22.7194 20.7445 24.1819 20.1387 25.7069 20.1387C27.2319 20.1387 28.6944 20.7445 29.7727 21.8228C30.851 22.9012 31.4568 24.3637 31.4568 25.8887C31.4568 27.4137 30.851 28.8762 29.7727 29.9545C28.6944 31.0329 27.2319 31.6387 25.7069 31.6387C24.1819 31.6387 22.7194 31.0329 21.641 29.9545C20.5627 28.8762 19.9569 27.4137 19.9569 25.8887ZM20.8539 15.7917C21.0154 15.9535 21.1061 16.1727 21.1061 16.4012C21.1061 16.6298 21.0154 16.849 20.8539 17.0107L17.4039 20.4607C17.2422 20.6222 17.023 20.713 16.7944 20.713C16.5659 20.713 16.3466 20.6222 16.1849 20.4607L14.4599 18.7334C14.3029 18.5707 14.2161 18.3528 14.2181 18.1266C14.2202 17.9005 14.311 17.6842 14.471 17.5244C14.631 17.3645 14.8474 17.2739 15.0735 17.2721C15.2997 17.2702 15.5175 17.3572 15.6801 17.5144L16.7956 18.6311L19.6349 15.7906C19.7966 15.6291 20.0158 15.5384 20.2444 15.5384C20.473 15.5384 20.6922 15.6302 20.8539 15.7917Z" fill="white"/>
</svg>
