<svg width="21" height="16" viewBox="0 0 21 16" fill="none" xmlns="http://www.w3.org/2000/svg">
<path d="M18.875 1.5H15.125V0H5.75V1.5H2C1.46957 1.5 0.960859 1.71071 0.585786 2.08579C0.210714 2.46086 0 2.96957 0 3.5V13.875C0 14.4054 0.210714 14.9141 0.585786 15.2892C0.960859 15.6643 1.46957 15.875 2 15.875H18.875C19.4054 15.875 19.9141 15.6643 20.2892 15.2892C20.6643 14.9141 20.875 14.4054 20.875 13.875V3.5C20.875 2.96957 20.6643 2.46086 20.2892 2.08579C19.9141 1.71071 19.4054 1.5 18.875 1.5ZM10.437 14.75C7.095 14.75 4.377 12.03 4.377 8.688C4.377 5.346 7.095 2.626 10.437 2.626C13.779 2.626 16.499 5.346 16.499 8.688C16.499 12.03 13.779 14.748 10.437 14.748V14.75ZM10.437 4.625C9.90337 4.62507 9.37498 4.73024 8.882 4.93451C8.38902 5.13878 7.9411 5.43815 7.56382 5.81553C7.18653 6.1929 6.88727 6.6409 6.68312 7.13393C6.47898 7.62696 6.37393 8.15537 6.374 8.689C6.37407 9.22263 6.47924 9.75101 6.68351 10.244C6.88778 10.737 7.18715 11.1849 7.56452 11.5622C7.9419 11.9395 8.3899 12.2387 8.88293 12.4429C9.37596 12.647 9.90437 12.7521 10.438 12.752C11.5158 12.7519 12.5495 12.3236 13.3115 11.5613C14.0736 10.7991 14.5016 9.76534 14.5015 8.6875C14.5014 7.60966 14.0731 6.57602 13.3108 5.81396C12.5486 5.05191 11.5148 4.62387 10.437 4.624V4.625Z" fill="#ffffff"/>
</svg>
