<svg width="44" height="44" viewBox="0 0 44 44" fill="none" xmlns="http://www.w3.org/2000/svg">
<circle cx="21.6818" cy="21.6818" r="21.6818" fill="#E29998"/>
<path fill-rule="evenodd" clip-rule="evenodd" d="M26.8961 18.7417C27.4644 18.7417 28.0095 18.5177 28.4113 18.119C28.8132 17.7203 29.039 17.1796 29.039 16.6157C29.039 16.0518 28.8132 15.5111 28.4113 15.1124C28.0095 14.7137 27.4644 14.4897 26.8961 14.4897C26.3278 14.4897 25.7827 14.7137 25.3809 15.1124C24.979 15.5111 24.7533 16.0518 24.7533 16.6157C24.7533 17.1796 24.979 17.7203 25.3809 18.119C25.7827 18.5177 26.3278 18.7417 26.8961 18.7417ZM26.8961 20.8678C27.6977 20.8677 28.4831 20.6446 29.1633 20.2238C29.8435 19.803 30.3911 19.2015 30.7439 18.4874C31.0967 17.7733 31.2407 16.9754 31.1593 16.1842C31.078 15.3931 30.7747 14.6404 30.2838 14.0117C29.7929 13.383 29.1341 12.9035 28.3824 12.6277C27.6306 12.3518 26.8159 12.2906 26.0308 12.4511C25.2457 12.6116 24.5218 12.9873 23.9412 13.5356C23.3605 14.0839 22.9465 14.7827 22.7461 15.5527H12.2533C11.9691 15.5527 11.6966 15.6647 11.4956 15.864C11.2947 16.0634 11.1818 16.3338 11.1818 16.6157C11.1818 16.8976 11.2947 17.168 11.4956 17.3674C11.6966 17.5667 11.9691 17.6787 12.2533 17.6787H22.7461C22.9837 18.5915 23.5202 19.4001 24.2714 19.9774C25.0226 20.5546 25.9459 20.8678 26.8961 20.8678ZM17.6104 25.1198C17.6104 25.6837 17.3846 26.2244 16.9828 26.6231C16.5809 27.0218 16.0359 27.2458 15.4675 27.2458C14.8992 27.2458 14.3542 27.0218 13.9523 26.6231C13.5504 26.2244 13.3247 25.6837 13.3247 25.1198C13.3247 24.5559 13.5504 24.0152 13.9523 23.6165C14.3542 23.2178 14.8992 22.9938 15.4675 22.9938C16.0359 22.9938 16.5809 23.2178 16.9828 23.6165C17.3846 24.0152 17.6104 24.5559 17.6104 25.1198ZM19.6175 26.1828C19.3548 27.183 18.734 28.0541 17.8711 28.6332C17.0082 29.2124 15.9623 29.46 14.9288 29.3297C13.8953 29.1995 12.945 28.7004 12.2554 27.9256C11.5658 27.1508 11.1842 26.1534 11.1818 25.1198C11.1815 24.0846 11.5617 23.0849 12.2513 22.308C12.9409 21.5312 13.8925 21.0306 14.9275 20.9002C15.9626 20.7698 17.0101 21.0184 17.8735 21.5996C18.7369 22.1807 19.357 23.0544 19.6175 24.0568H30.1104C30.3946 24.0568 30.6671 24.1688 30.868 24.3681C31.0689 24.5675 31.1818 24.8379 31.1818 25.1198C31.1818 25.4017 31.0689 25.6721 30.868 25.8715C30.6671 26.0708 30.3946 26.1828 30.1104 26.1828H19.6175Z" fill="white"/>
</svg>
