<svg width="25" height="22" viewBox="0 0 25 22" fill="none" xmlns="http://www.w3.org/2000/svg">
<path fill-rule="evenodd" clip-rule="evenodd" d="M3.57143 6.15936C2.58521 6.15936 1.78571 6.94737 1.78571 7.91943V18.4799C1.78571 19.4519 2.58521 20.2399 3.57143 20.2399H21.4286C22.4148 20.2399 23.2143 19.4519 23.2143 18.4799V7.91943C23.2143 6.94737 22.4148 6.15936 21.4286 6.15936H3.57143ZM5.32184e-07 7.91943C5.32184e-07 5.97531 1.59898 4.39929 3.57143 4.39929H21.4286C23.401 4.39929 25 5.97531 25 7.91943V18.4799C25 20.424 23.401 22 21.4286 22H3.57143C1.59898 22 5.32184e-07 20.424 5.32184e-07 18.4799V7.91943Z" fill="#1E1E1E"/>
<path fill-rule="evenodd" clip-rule="evenodd" d="M17.699 0.0624911C18.2286 -0.0356328 18.7736 -0.0180314 19.2956 0.1141C19.8206 0.246982 20.3093 0.492424 20.7269 0.832912C21.1446 1.1734 21.4808 1.60054 21.7117 2.08386C21.9425 2.56719 22.0623 3.09477 22.0625 3.62898V5.27933H20.2768V3.62926C20.2767 3.35416 20.2149 3.08247 20.0961 2.83358C19.9771 2.58459 19.8039 2.36455 19.5888 2.18915C19.3736 2.01374 19.1218 1.8873 18.8514 1.81885C18.581 1.7504 18.2986 1.74161 18.0243 1.79313C18.0187 1.79419 18.013 1.79519 18.0074 1.79614L3.32023 4.26693C2.88929 4.34967 2.5007 4.5772 2.22083 4.91082C1.9393 5.24641 1.78541 5.66831 1.78571 6.10376L1.78571 8.79947H4.86837e-07V6.10436C-0.000440162 5.25929 0.298264 4.44053 0.844629 3.78924C1.39112 3.13781 2.15113 2.69476 2.99357 2.53652C2.9992 2.53547 3.00484 2.53446 3.0105 2.53351L17.699 0.0624911Z" fill="#1E1E1E"/>
<path d="M18.75 14.9597C18.3968 14.9597 18.0516 14.8565 17.7579 14.6631C17.4643 14.4697 17.2354 14.1948 17.1002 13.8732C16.9651 13.5516 16.9297 13.1977 16.9986 12.8563C17.0675 12.5149 17.2376 12.2012 17.4873 11.9551C17.737 11.7089 18.0552 11.5413 18.4016 11.4734C18.748 11.4055 19.1071 11.4403 19.4334 11.5736C19.7597 11.7068 20.0385 11.9324 20.2348 12.2218C20.431 12.5112 20.5357 12.8515 20.5357 13.1996C20.5357 13.6664 20.3476 14.1141 20.0127 14.4442C19.6778 14.7743 19.2236 14.9597 18.75 14.9597Z" fill="#1E1E1E"/>
</svg>
