<svg width="25" height="25" viewBox="0 0 25 25" fill="none" xmlns="http://www.w3.org/2000/svg">
<path d="M5.06325 0L5.15563 1.19071L4.24817 1.96655L5.41102 2.24803L5.86746 3.35054L6.49235 2.33351L7.67693 2.23823L6.90532 1.32846L7.18245 0.16769L6.07938 0.622305L5.06325 0ZM23.6089 0.472582C23.3784 0.472582 23.1572 0.56436 22.9942 0.727726C22.8311 0.891092 22.7395 1.11266 22.7395 1.3437C22.7395 1.57473 22.8311 1.79631 22.9942 1.95967C23.1572 2.12304 23.3784 2.21482 23.6089 2.21482C23.8395 2.21482 24.0607 2.12304 24.2237 1.95967C24.3868 1.79631 24.4783 1.57473 24.4783 1.3437C24.4783 1.11266 24.3868 0.891092 24.2237 0.727726C24.0607 0.56436 23.8395 0.472582 23.6089 0.472582ZM11.4263 1.04425C11.1957 1.04425 10.9746 1.13603 10.8115 1.2994C10.6485 1.46276 10.5569 1.68434 10.5569 1.91537C10.5569 2.14641 10.6485 2.36798 10.8115 2.53134C10.9746 2.69471 11.1957 2.78649 11.4263 2.78649C11.6569 2.78649 11.878 2.69471 12.041 2.53134C12.2041 2.36798 12.2957 2.14641 12.2957 1.91537C12.2957 1.68434 12.2041 1.46276 12.041 1.2994C11.878 1.13603 11.6569 1.04425 11.4263 1.04425ZM21.4191 1.41666C20.9192 1.51139 20.4573 1.80757 20.0117 2.19413C19.5988 2.54965 19.213 2.99229 18.8869 3.47086C17.8654 3.63474 16.8438 4.05179 16.1591 4.62128C15.2843 5.33995 14.5073 6.57041 14.0834 7.83897C13.6813 8.00775 13.3009 8.2092 12.9912 8.42698C12.149 9.02043 11.7143 10.1583 11.3937 11.1492C11.0731 12.1456 10.9155 13.0167 10.9155 13.0167L11.8827 13.1909C11.8827 13.1909 12.0294 12.3742 12.3229 11.4541C12.6217 10.534 13.1271 9.53221 13.5563 9.23276C13.627 9.18376 13.7194 9.12932 13.8009 9.08032C13.7683 9.39065 13.7683 9.70099 13.8172 9.99499C13.915 10.6157 14.2519 11.2091 14.8496 11.5303C15.2734 11.759 15.7516 11.7046 16.1537 11.5412C16.5558 11.3724 16.9144 11.0948 17.2242 10.7681C17.5339 10.4414 17.7893 10.0549 17.9414 9.64654C18.0936 9.23821 18.1479 8.77543 17.9523 8.34531H17.9469C17.735 7.88797 17.3274 7.59397 16.8927 7.46875C16.458 7.34352 15.9907 7.34897 15.5234 7.41975C15.4419 7.43064 15.3658 7.45786 15.2843 7.47419C15.6864 6.61396 16.2624 5.80274 16.7786 5.37262C17.1155 5.09495 17.6806 4.82817 18.2838 4.63217C18.2077 4.83906 18.1479 5.04595 18.1208 5.25829C18.0338 5.82996 18.1588 6.45063 18.6152 6.8753C18.9467 7.18019 19.3923 7.22919 19.7835 7.16386C20.1693 7.09852 20.5443 6.9243 20.8811 6.70108C21.218 6.47241 21.5169 6.18929 21.7288 5.85718C21.9407 5.52507 22.082 5.1004 21.9462 4.67573V4.67028C21.7669 4.12202 21.3213 3.74526 20.8268 3.56668C20.6149 3.49046 20.3921 3.44745 20.1639 3.42186C20.3215 3.24437 20.4845 3.07831 20.6475 2.93621C21.017 2.61825 21.3919 2.41899 21.6038 2.37924L21.4191 1.41666ZM7.89428 3.32495L7.06834 3.84544L8.94301 6.85352L5.87832 7.01141L7.31829 10.1583L8.20944 9.74454L7.3672 7.9152L10.6601 7.74642L7.89428 3.32495ZM19.6531 4.37628C19.9846 4.37083 20.278 4.40895 20.4953 4.49061C20.7888 4.59406 20.9355 4.72473 21.0116 4.96973C21.0333 5.02962 21.0224 5.1494 20.9083 5.32906C20.7888 5.51418 20.5769 5.72107 20.3378 5.8844C20.0932 6.04774 19.8216 6.16207 19.6205 6.19474C19.414 6.23285 19.3216 6.19474 19.2782 6.15663C19.088 5.9824 19.0336 5.76462 19.088 5.39984C19.1315 5.10584 19.2673 4.75195 19.4684 4.38717C19.5336 4.38717 19.5933 4.37628 19.6531 4.37628ZM3.55753 5.42707C3.32695 5.42707 3.10581 5.51884 2.94276 5.68221C2.77972 5.84558 2.68812 6.06715 2.68812 6.29818C2.68812 6.52922 2.77972 6.75079 2.94276 6.91416C3.10581 7.07752 3.32695 7.1693 3.55753 7.1693C3.67175 7.16937 3.78487 7.14689 3.89041 7.10315C3.99596 7.0594 4.09186 6.99525 4.17265 6.91435C4.25344 6.83345 4.31753 6.7374 4.36126 6.63167C4.40498 6.52595 4.42749 6.41263 4.42749 6.29818C4.42749 6.18374 4.40498 6.07042 4.36126 5.9647C4.31753 5.85897 4.25344 5.76292 4.17265 5.68202C4.09186 5.60112 3.99596 5.53696 3.89041 5.49322C3.78487 5.44947 3.67175 5.42699 3.55753 5.42707ZM22.908 7.45242L22.1255 8.3562L20.9409 8.2582L21.5604 9.28176L21.0985 10.3815L22.2613 10.1093L23.1634 10.8879L23.2666 9.69554L24.2827 9.07487L23.1851 8.61209L22.908 7.45242ZM16.1972 8.35076C16.3548 8.3562 16.5015 8.37798 16.6156 8.41065C16.8492 8.47598 16.9742 8.57398 17.0612 8.75909C17.1101 8.86254 17.1155 9.05309 17.0231 9.30354C16.9307 9.55943 16.7406 9.85343 16.5123 10.0984C16.2841 10.3434 16.007 10.5394 15.7788 10.632C15.5506 10.7246 15.4093 10.7191 15.3169 10.6701H15.3115C14.9963 10.4959 14.8442 10.2454 14.7844 9.84254C14.73 9.49954 14.7681 9.06398 14.8822 8.59576C15.1485 8.5032 15.4147 8.42698 15.6701 8.38887C15.8603 8.36164 16.0342 8.35076 16.1972 8.35076ZM5.19909 11.1764C4.80786 11.1656 4.56334 11.2581 4.41119 11.4106C4.25904 11.563 4.16667 11.808 4.17753 12.2C4.1884 12.5975 4.31881 13.1201 4.56877 13.7027C5.06868 14.8733 6.05221 16.2834 7.37263 17.6118C8.69305 18.9348 10.1059 19.9148 11.2741 20.4157C11.8501 20.6662 12.3718 20.7969 12.7684 20.8077C13.1651 20.8241 13.4042 20.7261 13.5563 20.5736C13.7085 20.4212 13.8063 20.1816 13.79 19.7842C13.7791 19.3867 13.6487 18.8641 13.3988 18.2815C12.8988 17.1164 11.9208 15.7008 10.6003 14.3778C9.27991 13.0493 7.86711 12.0693 6.69883 11.5684C6.11741 11.318 5.59577 11.1873 5.19909 11.1764ZM17.8056 12.8806L16.0124 15.8206L14.4312 14.3016L13.7574 15.0094L16.208 17.3668L18.0447 14.3615L20.1476 16.12L25 14.0402L24.6196 13.1365L20.3106 14.9876L17.8056 12.8806ZM3.47277 13.572L2.51424 16.7244C4.76439 19.3976 7.38893 20.9003 10.2363 21.8803L11.41 21.521C11.2415 21.4611 11.0622 21.3903 10.8829 21.3141C9.55703 20.7479 8.0736 19.7025 6.68253 18.3033C5.28604 16.904 4.24274 15.4177 3.67545 14.0892C3.59883 13.915 3.53145 13.7408 3.47277 13.572ZM2.17843 17.8296L1.41714 20.3341C2.98698 21.8041 4.62311 22.4683 6.3402 23.0672L8.69849 22.3485C6.35107 21.3903 4.13406 19.9911 2.17843 17.8296ZM18.3925 17.8949C18.1619 17.8949 17.9407 17.9867 17.7777 18.1501C17.6146 18.3135 17.523 18.535 17.523 18.7661C17.523 18.9971 17.6146 19.2187 17.7777 19.382C17.9407 19.5454 18.1619 19.6372 18.3925 19.6372C18.623 19.6372 18.8442 19.5454 19.0072 19.382C19.1703 19.2187 19.2619 18.9971 19.2619 18.7661C19.2619 18.535 19.1703 18.3135 19.0072 18.1501C18.8442 17.9867 18.623 17.8949 18.3925 17.8949ZM1.10253 21.374L0 25L4.79699 23.5354C3.55971 23.04 2.30938 22.4084 1.10253 21.374Z" fill="#1E1E1E"/>
</svg>
