<svg width="20" height="24" viewBox="0 0 20 24" fill="none" xmlns="http://www.w3.org/2000/svg">
<path d="M1.23274e-06 16.875V5.00001C1.23274e-06 3.89584 0.286668 3.01543 0.860002 2.35876C1.43333 1.70209 2.18833 1.20209 3.125 0.858759C4.06167 0.515426 5.12958 0.286259 6.32875 0.171259C7.52792 0.0562591 8.75167 -0.00082434 10 8.99279e-06C11.375 8.99279e-06 12.6721 0.057509 13.8913 0.172509C15.1104 0.287509 16.1729 0.516676 17.0788 0.860009C17.9846 1.20334 18.6979 1.70334 19.2188 2.36001C19.7396 3.01668 20 3.89668 20 5.00001V16.875C20 18.1042 19.5783 19.1408 18.735 19.985C17.8917 20.8292 16.855 21.2508 15.625 21.25L17.5 23.125V23.75H15L12.5 21.25H7.5L5 23.75H2.5V23.125L4.375 21.25C3.14583 21.25 2.10917 20.8283 1.265 19.985C0.420835 19.1417 -0.000832101 18.105 1.23274e-06 16.875ZM2.5 10H8.75V6.25001H2.5V10ZM11.25 10H17.5V6.25001H11.25V10ZM5.625 17.5C6.16667 17.5 6.61458 17.3229 6.96875 16.9688C7.32292 16.6146 7.5 16.1667 7.5 15.625C7.5 15.0833 7.32292 14.6354 6.96875 14.2813C6.61458 13.9271 6.16667 13.75 5.625 13.75C5.08333 13.75 4.63542 13.9271 4.28125 14.2813C3.92708 14.6354 3.75 15.0833 3.75 15.625C3.75 16.1667 3.92708 16.6146 4.28125 16.9688C4.63542 17.3229 5.08333 17.5 5.625 17.5ZM14.375 17.5C14.9167 17.5 15.3646 17.3229 15.7188 16.9688C16.0729 16.6146 16.25 16.1667 16.25 15.625C16.25 15.0833 16.0729 14.6354 15.7188 14.2813C15.3646 13.9271 14.9167 13.75 14.375 13.75C13.8333 13.75 13.3854 13.9271 13.0313 14.2813C12.6771 14.6354 12.5 15.0833 12.5 15.625C12.5 16.1667 12.6771 16.6146 13.0313 16.9688C13.3854 17.3229 13.8333 17.5 14.375 17.5Z" fill="currentColor"/>
</svg>
