<svg width="32" height="23" viewBox="0 0 32 23" fill="none" xmlns="http://www.w3.org/2000/svg">
<path d="M4 4.375V8.5H8.5V4H4.375C4.16875 4 4 4.16875 4 4.375ZM26.5938 8.5L22.8016 4H19V8.5H26.5938ZM16 8.5V4H11.5V8.5H16ZM28.75 17.5H28C28 19.9844 25.9844 22 23.5 22C21.0156 22 19 19.9844 19 17.5H13C13 19.9844 10.9844 22 8.5 22C6.01562 22 4 19.9844 4 17.5H3.25C2.00781 17.5 1 16.4922 1 15.25V4.375C1 2.50938 2.50938 1 4.375 1H22.8016C23.6875 1 24.5266 1.38906 25.0984 2.06875L30.2969 8.24219C30.7516 8.78125 31 9.46562 31 10.1734V15.25C31 16.4922 29.9922 17.5 28.75 17.5ZM25.75 17.5C25.75 16.9033 25.5129 16.331 25.091 15.909C24.669 15.4871 24.0967 15.25 23.5 15.25C22.9033 15.25 22.331 15.4871 21.909 15.909C21.4871 16.331 21.25 16.9033 21.25 17.5C21.25 18.0967 21.4871 18.669 21.909 19.091C22.331 19.5129 22.9033 19.75 23.5 19.75C24.0967 19.75 24.669 19.5129 25.091 19.091C25.5129 18.669 25.75 18.0967 25.75 17.5ZM8.5 19.75C9.09674 19.75 9.66903 19.5129 10.091 19.091C10.5129 18.669 10.75 18.0967 10.75 17.5C10.75 16.9033 10.5129 16.331 10.091 15.909C9.66903 15.4871 9.09674 15.25 8.5 15.25C7.90326 15.25 7.33097 15.4871 6.90901 15.909C6.48705 16.331 6.25 16.9033 6.25 17.5C6.25 18.0967 6.48705 18.669 6.90901 19.091C7.33097 19.5129 7.90326 19.75 8.5 19.75Z" fill="black" stroke="white" stroke-width="0.67"/>
</svg>
