<svg width="28" height="24" viewBox="0 0 32 28" fill="none" xmlns="http://www.w3.org/2000/svg">
<path d="M6.66667 25.7333C5.42899 25.7333 4.242 25.2417 3.36684 24.3665C2.49167 23.4913 2 22.3043 2 21.0667C2 19.829 2.49167 18.642 3.36684 17.7668C4.242 16.8917 5.42899 16.4 6.66667 16.4C7.90434 16.4 9.09133 16.8917 9.9665 17.7668C10.8417 18.642 11.3333 19.829 11.3333 21.0667C11.3333 22.3043 10.8417 23.4913 9.9665 24.3665C9.09133 25.2417 7.90434 25.7333 6.66667 25.7333ZM6.66667 14.4C4.89856 14.4 3.20286 15.1024 1.95262 16.3526C0.702379 17.6029 0 19.2986 0 21.0667C0 22.8348 0.702379 24.5305 1.95262 25.7807C3.20286 27.031 4.89856 27.7333 6.66667 27.7333C8.43478 27.7333 10.1305 27.031 11.3807 25.7807C12.631 24.5305 13.3333 22.8348 13.3333 21.0667C13.3333 19.2986 12.631 17.6029 11.3807 16.3526C10.1305 15.1024 8.43478 14.4 6.66667 14.4ZM19.7333 11.7333H25.3333V9.33333H21.0667L18.48 4.97333C18.0933 4.30667 17.3333 3.86667 16.5333 3.86667C15.9067 3.86667 15.3333 4.12 14.9333 4.53333L10 9.45333C9.58667 9.86667 9.33333 10.4 9.33333 11.0667C9.33333 11.9067 9.77333 12.6133 10.4667 13.0267L14.9333 15.7333V22.4H17.3333V13.7333L14.3333 11.5333L17.4267 8.4M25.3333 25.7333C24.0957 25.7333 22.9087 25.2417 22.0335 24.3665C21.1583 23.4913 20.6667 22.3043 20.6667 21.0667C20.6667 19.829 21.1583 18.642 22.0335 17.7668C22.9087 16.8917 24.0957 16.4 25.3333 16.4C26.571 16.4 27.758 16.8917 28.6332 17.7668C29.5083 18.642 30 19.829 30 21.0667C30 22.3043 29.5083 23.4913 28.6332 24.3665C27.758 25.2417 26.571 25.7333 25.3333 25.7333ZM25.3333 14.4C23.5652 14.4 21.8695 15.1024 20.6193 16.3526C19.369 17.6029 18.6667 19.2986 18.6667 21.0667C18.6667 22.8348 19.369 24.5305 20.6193 25.7807C21.8695 27.031 23.5652 27.7333 25.3333 27.7333C26.2088 27.7333 27.0757 27.5609 27.8846 27.2259C28.6934 26.8908 29.4283 26.3998 30.0474 25.7807C30.6664 25.1617 31.1575 24.4267 31.4925 23.6179C31.8276 22.8091 32 21.9421 32 21.0667C32 20.1912 31.8276 19.3243 31.4925 18.5154C31.1575 17.7066 30.6664 16.9717 30.0474 16.3526C29.4283 15.7336 28.6934 15.2425 27.8846 14.9075C27.0757 14.5724 26.2088 14.4 25.3333 14.4ZM21.3333 4.8C22.6667 4.8 23.7333 3.73333 23.7333 2.4C23.7333 1.06667 22.6667 0 21.3333 0C20 0 18.9333 1.06667 18.9333 2.4C18.9333 3.73333 20 4.8 21.3333 4.8Z" fill="black"/>
</svg>
