<svg width="130" height="188" viewBox="0 0 130 188" fill="none" xmlns="http://www.w3.org/2000/svg">
<rect y="15" width="130" height="142" rx="20" fill="#991588"/>
<path d="M28.99 46H26.89L22.135 38.815V46H20.035V35.515H22.135L26.89 42.715V35.515H28.99V46ZM35.3553 46.135C34.5553 46.135 33.8353 45.96 33.1953 45.61C32.5553 45.25 32.0503 44.745 31.6803 44.095C31.3203 43.445 31.1403 42.695 31.1403 41.845C31.1403 40.995 31.3253 40.245 31.6953 39.595C32.0753 38.945 32.5903 38.445 33.2403 38.095C33.8903 37.735 34.6153 37.555 35.4153 37.555C36.2153 37.555 36.9403 37.735 37.5903 38.095C38.2403 38.445 38.7503 38.945 39.1203 39.595C39.5003 40.245 39.6903 40.995 39.6903 41.845C39.6903 42.695 39.4953 43.445 39.1053 44.095C38.7253 44.745 38.2053 45.25 37.5453 45.61C36.8953 45.96 36.1653 46.135 35.3553 46.135ZM35.3553 44.305C35.7353 44.305 36.0903 44.215 36.4203 44.035C36.7603 43.845 37.0303 43.565 37.2303 43.195C37.4303 42.825 37.5303 42.375 37.5303 41.845C37.5303 41.055 37.3203 40.45 36.9003 40.03C36.4903 39.6 35.9853 39.385 35.3853 39.385C34.7853 39.385 34.2803 39.6 33.8703 40.03C33.4703 40.45 33.2703 41.055 33.2703 41.845C33.2703 42.635 33.4653 43.245 33.8553 43.675C34.2553 44.095 34.7553 44.305 35.3553 44.305ZM49.6757 37.69V46H47.5607V44.95C47.2907 45.31 46.9357 45.595 46.4957 45.805C46.0657 46.005 45.5957 46.105 45.0857 46.105C44.4357 46.105 43.8607 45.97 43.3607 45.7C42.8607 45.42 42.4657 45.015 42.1757 44.485C41.8957 43.945 41.7557 43.305 41.7557 42.565V37.69H43.8557V42.265C43.8557 42.925 44.0207 43.435 44.3507 43.795C44.6807 44.145 45.1307 44.32 45.7007 44.32C46.2807 44.32 46.7357 44.145 47.0657 43.795C47.3957 43.435 47.5607 42.925 47.5607 42.265V37.69H49.6757ZM55.8127 44.065L57.9127 37.69H60.1477L57.0727 46H54.5227L51.4627 37.69H53.7127L55.8127 44.065ZM69.6522 41.665C69.6522 41.965 69.6322 42.235 69.5922 42.475H63.5172C63.5672 43.075 63.7772 43.545 64.1472 43.885C64.5172 44.225 64.9722 44.395 65.5122 44.395C66.2922 44.395 66.8472 44.06 67.1772 43.39H69.4422C69.2022 44.19 68.7422 44.85 68.0622 45.37C67.3822 45.88 66.5472 46.135 65.5572 46.135C64.7572 46.135 64.0372 45.96 63.3972 45.61C62.7672 45.25 62.2722 44.745 61.9122 44.095C61.5622 43.445 61.3872 42.695 61.3872 41.845C61.3872 40.985 61.5622 40.23 61.9122 39.58C62.2622 38.93 62.7522 38.43 63.3822 38.08C64.0122 37.73 64.7372 37.555 65.5572 37.555C66.3472 37.555 67.0522 37.725 67.6722 38.065C68.3022 38.405 68.7872 38.89 69.1272 39.52C69.4772 40.14 69.6522 40.855 69.6522 41.665ZM67.4772 41.065C67.4672 40.525 67.2722 40.095 66.8922 39.775C66.5122 39.445 66.0472 39.28 65.4972 39.28C64.9772 39.28 64.5372 39.44 64.1772 39.76C63.8272 40.07 63.6122 40.505 63.5322 41.065H67.4772ZM71.245 41.815C71.245 40.975 71.41 40.23 71.74 39.58C72.08 38.93 72.535 38.43 73.105 38.08C73.685 37.73 74.33 37.555 75.04 37.555C75.66 37.555 76.2 37.68 76.66 37.93C77.13 38.18 77.505 38.495 77.785 38.875V37.69H79.9V46H77.785V44.785C77.515 45.175 77.14 45.5 76.66 45.76C76.19 46.01 75.645 46.135 75.025 46.135C74.325 46.135 73.685 45.955 73.105 45.595C72.535 45.235 72.08 44.73 71.74 44.08C71.41 43.42 71.245 42.665 71.245 41.815ZM77.785 41.845C77.785 41.335 77.685 40.9 77.485 40.54C77.285 40.17 77.015 39.89 76.675 39.7C76.335 39.5 75.97 39.4 75.58 39.4C75.19 39.4 74.83 39.495 74.5 39.685C74.17 39.875 73.9 40.155 73.69 40.525C73.49 40.885 73.39 41.315 73.39 41.815C73.39 42.315 73.49 42.755 73.69 43.135C73.9 43.505 74.17 43.79 74.5 43.99C74.84 44.19 75.2 44.29 75.58 44.29C75.97 44.29 76.335 44.195 76.675 44.005C77.015 43.805 77.285 43.525 77.485 43.165C77.685 42.795 77.785 42.355 77.785 41.845ZM90.396 37.69V46H88.281V44.95C88.011 45.31 87.656 45.595 87.216 45.805C86.786 46.005 86.316 46.105 85.806 46.105C85.156 46.105 84.581 45.97 84.081 45.7C83.581 45.42 83.186 45.015 82.896 44.485C82.616 43.945 82.476 43.305 82.476 42.565V37.69H84.576V42.265C84.576 42.925 84.741 43.435 85.071 43.795C85.401 44.145 85.851 44.32 86.421 44.32C87.001 44.32 87.456 44.145 87.786 43.795C88.116 43.435 88.281 42.925 88.281 42.265V37.69H90.396ZM97.658 46L95.948 43.42L94.433 46H92.183L94.898 41.83L92.153 37.69H94.523L96.218 40.255L97.748 37.69H99.998L97.268 41.83L100.028 46H97.658ZM26.455 62.005H22.285L21.595 64H19.39L23.155 53.515H25.6L29.365 64H27.145L26.455 62.005ZM25.885 60.325L24.37 55.945L22.855 60.325H25.885ZM33.4723 56.98C33.7423 56.54 34.0923 56.195 34.5223 55.945C34.9623 55.695 35.4623 55.57 36.0223 55.57V57.775H35.4673C34.8073 57.775 34.3073 57.93 33.9673 58.24C33.6373 58.55 33.4723 59.09 33.4723 59.86V64H31.3723V55.69H33.4723V56.98ZM40.4818 57.415V61.435C40.4818 61.715 40.5468 61.92 40.6768 62.05C40.8168 62.17 41.0468 62.23 41.3668 62.23H42.3418V64H41.0218C39.2518 64 38.3668 63.14 38.3668 61.42V57.415H37.3768V55.69H38.3668V53.635H40.4818V55.69H42.3418V57.415H40.4818ZM45.5172 54.7C45.1472 54.7 44.8372 54.585 44.5872 54.355C44.3472 54.115 44.2272 53.82 44.2272 53.47C44.2272 53.12 44.3472 52.83 44.5872 52.6C44.8372 52.36 45.1472 52.24 45.5172 52.24C45.8872 52.24 46.1922 52.36 46.4322 52.6C46.6822 52.83 46.8072 53.12 46.8072 53.47C46.8072 53.82 46.6822 54.115 46.4322 54.355C46.1922 54.585 45.8872 54.7 45.5172 54.7ZM46.5522 55.69V64H44.4522V55.69H46.5522ZM52.407 64.135C51.727 64.135 51.117 64.015 50.577 63.775C50.037 63.525 49.607 63.19 49.287 62.77C48.977 62.35 48.807 61.885 48.777 61.375H50.892C50.932 61.695 51.087 61.96 51.357 62.17C51.637 62.38 51.982 62.485 52.392 62.485C52.792 62.485 53.102 62.405 53.322 62.245C53.552 62.085 53.667 61.88 53.667 61.63C53.667 61.36 53.527 61.16 53.247 61.03C52.977 60.89 52.542 60.74 51.942 60.58C51.322 60.43 50.812 60.275 50.412 60.115C50.022 59.955 49.682 59.71 49.392 59.38C49.112 59.05 48.972 58.605 48.972 58.045C48.972 57.585 49.102 57.165 49.362 56.785C49.632 56.405 50.012 56.105 50.502 55.885C51.002 55.665 51.587 55.555 52.257 55.555C53.247 55.555 54.037 55.805 54.627 56.305C55.217 56.795 55.542 57.46 55.602 58.3H53.592C53.562 57.97 53.422 57.71 53.172 57.52C52.932 57.32 52.607 57.22 52.197 57.22C51.817 57.22 51.522 57.29 51.312 57.43C51.112 57.57 51.012 57.765 51.012 58.015C51.012 58.295 51.152 58.51 51.432 58.66C51.712 58.8 52.147 58.945 52.737 59.095C53.337 59.245 53.832 59.4 54.222 59.56C54.612 59.72 54.947 59.97 55.227 60.31C55.517 60.64 55.667 61.08 55.677 61.63C55.677 62.11 55.542 62.54 55.272 62.92C55.012 63.3 54.632 63.6 54.132 63.82C53.642 64.03 53.067 64.135 52.407 64.135ZM60.4458 57.415V61.435C60.4458 61.715 60.5108 61.92 60.6408 62.05C60.7808 62.17 61.0108 62.23 61.3308 62.23H62.3058V64H60.9858C59.2158 64 58.3308 63.14 58.3308 61.42V57.415H57.3408V55.69H58.3308V53.635H60.4458V55.69H62.3058V57.415H60.4458ZM72.1412 59.665C72.1412 59.965 72.1212 60.235 72.0812 60.475H66.0062C66.0562 61.075 66.2662 61.545 66.6362 61.885C67.0062 62.225 67.4612 62.395 68.0012 62.395C68.7812 62.395 69.3362 62.06 69.6662 61.39H71.9312C71.6912 62.19 71.2312 62.85 70.5512 63.37C69.8712 63.88 69.0362 64.135 68.0462 64.135C67.2462 64.135 66.5262 63.96 65.8862 63.61C65.2562 63.25 64.7612 62.745 64.4012 62.095C64.0512 61.445 63.8762 60.695 63.8762 59.845C63.8762 58.985 64.0512 58.23 64.4012 57.58C64.7512 56.93 65.2412 56.43 65.8712 56.08C66.5012 55.73 67.2262 55.555 68.0462 55.555C68.8362 55.555 69.5412 55.725 70.1612 56.065C70.7912 56.405 71.2762 56.89 71.6162 57.52C71.9662 58.14 72.1412 58.855 72.1412 59.665ZM69.9662 59.065C69.9562 58.525 69.7612 58.095 69.3812 57.775C69.0012 57.445 68.5362 57.28 67.9862 57.28C67.4662 57.28 67.0262 57.44 66.6662 57.76C66.3162 58.07 66.1012 58.505 66.0212 59.065H69.9662ZM77.4541 64.135C76.7741 64.135 76.1641 64.015 75.6241 63.775C75.0841 63.525 74.6541 63.19 74.3341 62.77C74.0241 62.35 73.8541 61.885 73.8241 61.375H75.9391C75.9791 61.695 76.1341 61.96 76.4041 62.17C76.6841 62.38 77.0291 62.485 77.4391 62.485C77.8391 62.485 78.1491 62.405 78.3691 62.245C78.5991 62.085 78.7141 61.88 78.7141 61.63C78.7141 61.36 78.5741 61.16 78.2941 61.03C78.0241 60.89 77.5891 60.74 76.9891 60.58C76.3691 60.43 75.8591 60.275 75.4591 60.115C75.0691 59.955 74.7291 59.71 74.4391 59.38C74.1591 59.05 74.0191 58.605 74.0191 58.045C74.0191 57.585 74.1491 57.165 74.4091 56.785C74.6791 56.405 75.0591 56.105 75.5491 55.885C76.0491 55.665 76.6341 55.555 77.3041 55.555C78.2941 55.555 79.0841 55.805 79.6741 56.305C80.2641 56.795 80.5891 57.46 80.6491 58.3H78.6391C78.6091 57.97 78.4691 57.71 78.2191 57.52C77.9791 57.32 77.6541 57.22 77.2441 57.22C76.8641 57.22 76.5691 57.29 76.3591 57.43C76.1591 57.57 76.0591 57.765 76.0591 58.015C76.0591 58.295 76.1991 58.51 76.4791 58.66C76.7591 58.8 77.1941 58.945 77.7841 59.095C78.3841 59.245 78.8791 59.4 79.2691 59.56C79.6591 59.72 79.9941 59.97 80.2741 60.31C80.5641 60.64 80.7141 61.08 80.7241 61.63C80.7241 62.11 80.5891 62.54 80.3191 62.92C80.0591 63.3 79.6791 63.6 79.1791 63.82C78.6891 64.03 78.1141 64.135 77.4541 64.135Z" fill="white"/>
<path d="M38 118.211C35.7381 118.211 33.8155 117.428 32.2321 115.862C30.6488 114.296 29.8571 112.395 29.8571 110.158V94.0526C29.8571 91.8158 30.6488 89.9145 32.2321 88.3487C33.8155 86.7829 35.7381 86 38 86C40.2619 86 42.1845 86.7829 43.7679 88.3487C45.3512 89.9145 46.1429 91.8158 46.1429 94.0526V110.158C46.1429 112.395 45.3512 114.296 43.7679 115.862C42.1845 117.428 40.2619 118.211 38 118.211ZM35.2857 137V128.746C30.581 128.12 26.6905 126.039 23.6143 122.505C20.5381 118.971 19 114.855 19 110.158H24.4286C24.4286 113.871 25.7522 117.037 28.3996 119.655C31.0469 122.273 34.247 123.581 38 123.579C41.753 123.577 44.954 122.268 47.6031 119.652C50.2523 117.036 51.575 113.871 51.5714 110.158H57C57 114.855 55.4619 118.971 52.3857 122.505C49.3095 126.039 45.419 128.12 40.7143 128.746V137H35.2857Z" fill="#FA70BC"/>
<path d="M102.5 115C100.423 115 98.3932 115.616 96.6665 116.77C94.9398 117.923 93.594 119.563 92.7993 121.482C92.0045 123.4 91.7966 125.512 92.2018 127.548C92.6069 129.585 93.6069 131.456 95.0754 132.925C96.5438 134.393 98.4148 135.393 100.452 135.798C102.488 136.203 104.6 135.995 106.518 135.201C108.437 134.406 110.077 133.06 111.23 131.333C112.384 129.607 113 127.577 113 125.5C113 124.121 112.728 122.756 112.201 121.482C111.673 120.208 110.9 119.05 109.925 118.075C108.95 117.1 107.792 116.327 106.518 115.799C105.244 115.272 103.879 115 102.5 115ZM100.4 130.225V120.775L106.7 125.5L100.4 130.225Z" fill="white" fill-opacity="0.6"/>
</svg>
