<svg width="130" height="188" viewBox="0 0 130 188" fill="none" xmlns="http://www.w3.org/2000/svg">
<rect y="15" width="130" height="142" rx="20" fill="#5545B0"/>
<path d="M26.67 38.77C26.67 39.33 26.535 39.855 26.265 40.345C26.005 40.835 25.59 41.23 25.02 41.53C24.46 41.83 23.75 41.98 22.89 41.98H21.135V46H19.035V35.53H22.89C23.7 35.53 24.39 35.67 24.96 35.95C25.53 36.23 25.955 36.615 26.235 37.105C26.525 37.595 26.67 38.15 26.67 38.77ZM22.8 40.285C23.38 40.285 23.81 40.155 24.09 39.895C24.37 39.625 24.51 39.25 24.51 38.77C24.51 37.75 23.94 37.24 22.8 37.24H21.135V40.285H22.8ZM30.261 34.9V46H28.161V34.9H30.261ZM31.7958 41.815C31.7958 40.975 31.9608 40.23 32.2908 39.58C32.6308 38.93 33.0858 38.43 33.6558 38.08C34.2358 37.73 34.8808 37.555 35.5908 37.555C36.2108 37.555 36.7508 37.68 37.2108 37.93C37.6808 38.18 38.0558 38.495 38.3358 38.875V37.69H40.4508V46H38.3358V44.785C38.0658 45.175 37.6908 45.5 37.2108 45.76C36.7408 46.01 36.1958 46.135 35.5758 46.135C34.8758 46.135 34.2358 45.955 33.6558 45.595C33.0858 45.235 32.6308 44.73 32.2908 44.08C31.9608 43.42 31.7958 42.665 31.7958 41.815ZM38.3358 41.845C38.3358 41.335 38.2358 40.9 38.0358 40.54C37.8358 40.17 37.5658 39.89 37.2258 39.7C36.8858 39.5 36.5208 39.4 36.1308 39.4C35.7408 39.4 35.3808 39.495 35.0508 39.685C34.7208 39.875 34.4508 40.155 34.2408 40.525C34.0408 40.885 33.9408 41.315 33.9408 41.815C33.9408 42.315 34.0408 42.755 34.2408 43.135C34.4508 43.505 34.7208 43.79 35.0508 43.99C35.3908 44.19 35.7508 44.29 36.1308 44.29C36.5208 44.29 36.8858 44.195 37.2258 44.005C37.5658 43.805 37.8358 43.525 38.0358 43.165C38.2358 42.795 38.3358 42.355 38.3358 41.845ZM50.4518 37.69L45.3068 49.93H43.0718L44.8718 45.79L41.5418 37.69H43.8968L46.0418 43.495L48.2168 37.69H50.4518ZM53.6838 34.9V46H51.5838V34.9H53.6838ZM56.8236 36.7C56.4536 36.7 56.1436 36.585 55.8936 36.355C55.6536 36.115 55.5336 35.82 55.5336 35.47C55.5336 35.12 55.6536 34.83 55.8936 34.6C56.1436 34.36 56.4536 34.24 56.8236 34.24C57.1936 34.24 57.4986 34.36 57.7386 34.6C57.9886 34.83 58.1136 35.12 58.1136 35.47C58.1136 35.82 57.9886 36.115 57.7386 36.355C57.4986 36.585 57.1936 36.7 56.8236 36.7ZM57.8586 37.69V46H55.7586V37.69H57.8586ZM63.1134 46.135C62.4334 46.135 61.8234 46.015 61.2834 45.775C60.7434 45.525 60.3134 45.19 59.9934 44.77C59.6834 44.35 59.5134 43.885 59.4834 43.375H61.5984C61.6384 43.695 61.7934 43.96 62.0634 44.17C62.3434 44.38 62.6884 44.485 63.0984 44.485C63.4984 44.485 63.8084 44.405 64.0284 44.245C64.2584 44.085 64.3734 43.88 64.3734 43.63C64.3734 43.36 64.2334 43.16 63.9534 43.03C63.6834 42.89 63.2484 42.74 62.6484 42.58C62.0284 42.43 61.5184 42.275 61.1184 42.115C60.7284 41.955 60.3884 41.71 60.0984 41.38C59.8184 41.05 59.6784 40.605 59.6784 40.045C59.6784 39.585 59.8084 39.165 60.0684 38.785C60.3384 38.405 60.7184 38.105 61.2084 37.885C61.7084 37.665 62.2934 37.555 62.9634 37.555C63.9534 37.555 64.7434 37.805 65.3334 38.305C65.9234 38.795 66.2484 39.46 66.3084 40.3H64.2984C64.2684 39.97 64.1284 39.71 63.8784 39.52C63.6384 39.32 63.3134 39.22 62.9034 39.22C62.5234 39.22 62.2284 39.29 62.0184 39.43C61.8184 39.57 61.7184 39.765 61.7184 40.015C61.7184 40.295 61.8584 40.51 62.1384 40.66C62.4184 40.8 62.8534 40.945 63.4434 41.095C64.0434 41.245 64.5384 41.4 64.9284 41.56C65.3184 41.72 65.6534 41.97 65.9334 42.31C66.2234 42.64 66.3734 43.08 66.3834 43.63C66.3834 44.11 66.2484 44.54 65.9784 44.92C65.7184 45.3 65.3384 45.6 64.8384 45.82C64.3484 46.03 63.7734 46.135 63.1134 46.135ZM70.5523 39.415V43.435C70.5523 43.715 70.6173 43.92 70.7473 44.05C70.8873 44.17 71.1173 44.23 71.4373 44.23H72.4123V46H71.0923C69.3223 46 68.4373 45.14 68.4373 43.42V39.415H67.4473V37.69H68.4373V35.635H70.5523V37.69H72.4123V39.415H70.5523ZM76.9569 41.815C76.9569 40.975 77.1219 40.23 77.4519 39.58C77.7919 38.93 78.2519 38.43 78.8319 38.08C79.4119 37.73 80.0569 37.555 80.7669 37.555C81.3069 37.555 81.8219 37.675 82.3119 37.915C82.8019 38.145 83.1919 38.455 83.4819 38.845V34.9H85.6119V46H83.4819V44.77C83.2219 45.18 82.8569 45.51 82.3869 45.76C81.9169 46.01 81.3719 46.135 80.7519 46.135C80.0519 46.135 79.4119 45.955 78.8319 45.595C78.2519 45.235 77.7919 44.73 77.4519 44.08C77.1219 43.42 76.9569 42.665 76.9569 41.815ZM83.4969 41.845C83.4969 41.335 83.3969 40.9 83.1969 40.54C82.9969 40.17 82.7269 39.89 82.3869 39.7C82.0469 39.5 81.6819 39.4 81.2919 39.4C80.9019 39.4 80.5419 39.495 80.2119 39.685C79.8819 39.875 79.6119 40.155 79.4019 40.525C79.2019 40.885 79.1019 41.315 79.1019 41.815C79.1019 42.315 79.2019 42.755 79.4019 43.135C79.6119 43.505 79.8819 43.79 80.2119 43.99C80.5519 44.19 80.9119 44.29 81.2919 44.29C81.6819 44.29 82.0469 44.195 82.3869 44.005C82.7269 43.805 82.9969 43.525 83.1969 43.165C83.3969 42.795 83.4969 42.355 83.4969 41.845ZM95.3879 41.665C95.3879 41.965 95.3679 42.235 95.3279 42.475H89.2529C89.3029 43.075 89.5129 43.545 89.8829 43.885C90.2529 44.225 90.7079 44.395 91.2479 44.395C92.0279 44.395 92.5829 44.06 92.9129 43.39H95.1779C94.9379 44.19 94.4779 44.85 93.7979 45.37C93.1179 45.88 92.2829 46.135 91.2929 46.135C90.4929 46.135 89.7729 45.96 89.1329 45.61C88.5029 45.25 88.0079 44.745 87.6479 44.095C87.2979 43.445 87.1229 42.695 87.1229 41.845C87.1229 40.985 87.2979 40.23 87.6479 39.58C87.9979 38.93 88.4879 38.43 89.1179 38.08C89.7479 37.73 90.4729 37.555 91.2929 37.555C92.0829 37.555 92.7879 37.725 93.4079 38.065C94.0379 38.405 94.5229 38.89 94.8629 39.52C95.2129 40.14 95.3879 40.855 95.3879 41.665ZM93.2129 41.065C93.2029 40.525 93.0079 40.095 92.6279 39.775C92.2479 39.445 91.7829 39.28 91.2329 39.28C90.7129 39.28 90.2729 39.44 89.9129 39.76C89.5629 40.07 89.3479 40.505 89.2679 41.065H93.2129ZM21.135 52.9V64H19.035V52.9H21.135ZM22.6698 59.815C22.6698 58.975 22.8348 58.23 23.1648 57.58C23.5048 56.93 23.9598 56.43 24.5298 56.08C25.1098 55.73 25.7548 55.555 26.4648 55.555C27.0848 55.555 27.6248 55.68 28.0848 55.93C28.5548 56.18 28.9298 56.495 29.2098 56.875V55.69H31.3248V64H29.2098V62.785C28.9398 63.175 28.5648 63.5 28.0848 63.76C27.6148 64.01 27.0698 64.135 26.4498 64.135C25.7498 64.135 25.1098 63.955 24.5298 63.595C23.9598 63.235 23.5048 62.73 23.1648 62.08C22.8348 61.42 22.6698 60.665 22.6698 59.815ZM29.2098 59.845C29.2098 59.335 29.1098 58.9 28.9098 58.54C28.7098 58.17 28.4398 57.89 28.0998 57.7C27.7598 57.5 27.3948 57.4 27.0048 57.4C26.6148 57.4 26.2548 57.495 25.9248 57.685C25.5948 57.875 25.3248 58.155 25.1148 58.525C24.9148 58.885 24.8148 59.315 24.8148 59.815C24.8148 60.315 24.9148 60.755 25.1148 61.135C25.3248 61.505 25.5948 61.79 25.9248 61.99C26.2648 62.19 26.6248 62.29 27.0048 62.29C27.3948 62.29 27.7598 62.195 28.0998 62.005C28.4398 61.805 28.7098 61.525 28.9098 61.165C29.1098 60.795 29.2098 60.355 29.2098 59.845ZM36.41 59.845C36.41 58.985 36.585 58.235 36.935 57.595C37.285 56.945 37.77 56.445 38.39 56.095C39.01 55.735 39.72 55.555 40.52 55.555C41.55 55.555 42.4 55.815 43.07 56.335C43.75 56.845 44.205 57.565 44.435 58.495H42.17C42.05 58.135 41.845 57.855 41.555 57.655C41.275 57.445 40.925 57.34 40.505 57.34C39.905 57.34 39.43 57.56 39.08 58C38.73 58.43 38.555 59.045 38.555 59.845C38.555 60.635 38.73 61.25 39.08 61.69C39.43 62.12 39.905 62.335 40.505 62.335C41.355 62.335 41.91 61.955 42.17 61.195H44.435C44.205 62.095 43.75 62.81 43.07 63.34C42.39 63.87 41.54 64.135 40.52 64.135C39.72 64.135 39.01 63.96 38.39 63.61C37.77 63.25 37.285 62.75 36.935 62.11C36.585 61.46 36.41 60.705 36.41 59.845ZM49.6635 64.135C48.8635 64.135 48.1435 63.96 47.5035 63.61C46.8635 63.25 46.3585 62.745 45.9885 62.095C45.6285 61.445 45.4485 60.695 45.4485 59.845C45.4485 58.995 45.6335 58.245 46.0035 57.595C46.3835 56.945 46.8985 56.445 47.5485 56.095C48.1985 55.735 48.9235 55.555 49.7235 55.555C50.5235 55.555 51.2485 55.735 51.8985 56.095C52.5485 56.445 53.0585 56.945 53.4285 57.595C53.8085 58.245 53.9985 58.995 53.9985 59.845C53.9985 60.695 53.8035 61.445 53.4135 62.095C53.0335 62.745 52.5135 63.25 51.8535 63.61C51.2035 63.96 50.4735 64.135 49.6635 64.135ZM49.6635 62.305C50.0435 62.305 50.3985 62.215 50.7285 62.035C51.0685 61.845 51.3385 61.565 51.5385 61.195C51.7385 60.825 51.8385 60.375 51.8385 59.845C51.8385 59.055 51.6285 58.45 51.2085 58.03C50.7985 57.6 50.2935 57.385 49.6935 57.385C49.0935 57.385 48.5885 57.6 48.1785 58.03C47.7785 58.45 47.5785 59.055 47.5785 59.845C47.5785 60.635 47.7735 61.245 48.1635 61.675C48.5635 62.095 49.0635 62.305 49.6635 62.305ZM65.8589 55.57C66.8789 55.57 67.6989 55.885 68.3189 56.515C68.9489 57.135 69.2639 58.005 69.2639 59.125V64H67.1639V59.41C67.1639 58.76 66.9989 58.265 66.6689 57.925C66.3389 57.575 65.8889 57.4 65.3189 57.4C64.7489 57.4 64.2939 57.575 63.9539 57.925C63.6239 58.265 63.4589 58.76 63.4589 59.41V64H61.3589V59.41C61.3589 58.76 61.1939 58.265 60.8639 57.925C60.5339 57.575 60.0839 57.4 59.5139 57.4C58.9339 57.4 58.4739 57.575 58.1339 57.925C57.8039 58.265 57.6389 58.76 57.6389 59.41V64H55.5389V55.69H57.6389V56.695C57.9089 56.345 58.2539 56.07 58.6739 55.87C59.1039 55.67 59.5739 55.57 60.0839 55.57C60.7339 55.57 61.3139 55.71 61.8239 55.99C62.3339 56.26 62.7289 56.65 63.0089 57.16C63.2789 56.68 63.6689 56.295 64.1789 56.005C64.6989 55.715 65.2589 55.57 65.8589 55.57Z" fill="white"/>
<path fill-rule="evenodd" clip-rule="evenodd" d="M54.7 92.5556C54.7 91.1442 55.8417 90 57.25 90H67.45C68.8583 90 70 91.1442 70 92.5556C70 93.9669 68.8583 95.1111 67.45 95.1111H59.8V125.778C59.8 127.12 59.5362 128.449 59.0236 129.69C58.511 130.93 57.7596 132.057 56.8125 133.006C55.8653 133.955 54.7409 134.708 53.5034 135.222C52.2659 135.736 50.9395 136 49.6 136C48.2605 136 46.9342 135.736 45.6966 135.222C44.4591 134.708 43.3347 133.955 42.3875 133.006C41.4404 132.057 40.689 130.93 40.1764 129.69C39.6638 128.449 39.4 127.12 39.4 125.778C39.4 124.435 39.6638 123.106 40.1764 121.866C40.689 120.626 41.4404 119.499 42.3875 118.55C43.3347 117.6 44.4591 116.847 45.6966 116.334C46.9342 115.82 48.2605 115.556 49.6 115.556C50.9395 115.556 52.2659 115.82 53.5034 116.334C53.9156 116.505 54.3153 116.702 54.7 116.925V92.5556ZM19 95.1111C19 93.6997 20.1417 92.5556 21.55 92.5556H47.05C48.4583 92.5556 49.6 93.6997 49.6 95.1111C49.6 96.5225 48.4583 97.6667 47.05 97.6667H21.55C20.1417 97.6667 19 96.5225 19 95.1111ZM19 105.333C19 103.922 20.1417 102.778 21.55 102.778H47.05C48.4583 102.778 49.6 103.922 49.6 105.333C49.6 106.745 48.4583 107.889 47.05 107.889H21.55C20.1417 107.889 19 106.745 19 105.333ZM19 115.556C19 114.144 20.1417 113 21.55 113H36.85C38.2583 113 39.4 114.144 39.4 115.556C39.4 116.967 38.2583 118.111 36.85 118.111H21.55C20.1417 118.111 19 116.967 19 115.556ZM49.6 120.667C48.9303 120.667 48.2671 120.799 47.6483 121.056C47.0296 121.313 46.4673 121.689 45.9938 122.164C45.5202 122.638 45.1445 123.202 44.8882 123.822C44.6319 124.442 44.5 125.107 44.5 125.778C44.5 126.449 44.6319 127.114 44.8882 127.734C45.1445 128.354 45.5202 128.917 45.9938 129.392C46.4673 129.866 47.0296 130.243 47.6483 130.5C48.2671 130.757 48.9303 130.889 49.6 130.889C50.2697 130.889 50.9329 130.757 51.5517 130.5C52.1704 130.243 52.7327 129.866 53.2062 129.392C53.6798 128.917 54.0555 128.354 54.3118 127.734C54.5681 127.114 54.7 126.449 54.7 125.778C54.7 125.107 54.5681 124.442 54.3118 123.822C54.0555 123.202 53.6798 122.638 53.2062 122.164C52.7327 121.689 52.1704 121.313 51.5517 121.056C50.9329 120.799 50.2697 120.667 49.6 120.667Z" fill="#7ED6F4"/>
</svg>
