<svg width="130" height="188" viewBox="0 0 130 188" fill="none" xmlns="http://www.w3.org/2000/svg">
<rect y="15" width="130" height="142" rx="20" fill="#43139D"/>
<mask id="mask0_21_130" style="mask-type:alpha" maskUnits="userSpaceOnUse" x="0" y="72" width="130" height="85">
<path d="M0 72H130V137C130 148.046 121.046 157 110 157H20C8.9543 157 0 148.046 0 137V72Z" fill="white"/>
</mask>
<g mask="url(#mask0_21_130)">
<path d="M44.2414 90.8211V78.1034C44.2414 77.5455 44.0198 77.0105 43.6253 76.6161C43.2308 76.2216 42.6958 76 42.1379 76C41.5801 76 41.0451 76.2216 40.6506 76.6161C40.2561 77.0105 40.0345 77.5455 40.0345 78.1034V90.8211C34.1049 91.3624 28.6122 94.1687 24.6989 98.6563C20.7856 103.144 18.7531 108.967 19.024 114.915C19.2949 120.863 21.8485 126.478 26.1535 130.591C30.4586 134.705 36.1837 137 42.1379 137C48.0922 137 53.8173 134.705 58.1224 130.591C62.4274 126.478 64.981 120.863 65.2519 114.915C65.5228 108.967 63.4903 103.144 59.577 98.6563C55.6637 94.1687 50.171 91.3624 44.2414 90.8211ZM60.948 111.758H52.5947C52.1977 104.301 49.7577 99.0427 47.4833 95.7036C51.0562 96.7617 54.2384 98.8484 56.6329 101.703C59.0274 104.558 60.5282 108.055 60.948 111.758ZM35.8907 115.965H48.3852C47.8593 124.778 44.1441 129.886 42.1379 132.024C40.1292 129.881 36.4139 124.775 35.8907 115.965ZM35.8907 111.758C36.4166 102.945 40.1318 97.8359 42.1379 95.6983C44.1467 97.8412 47.862 102.947 48.3852 111.758H35.8907ZM36.7926 95.7036C34.5129 99.0427 32.0782 104.301 31.6812 111.758H23.3279C23.7477 108.055 25.2484 104.558 27.643 101.703C30.0375 98.8484 33.2197 96.7617 36.7926 95.7036ZM23.3279 115.965H31.6812C32.0782 123.421 34.5182 128.68 36.7926 132.019C33.2197 130.961 30.0375 128.874 27.643 126.019C25.2484 123.164 23.7477 119.667 23.3279 115.965ZM47.4833 132.019C49.7577 128.68 52.1977 123.421 52.5947 115.965H60.948C60.5282 119.667 59.0274 123.164 56.6329 126.019C54.2384 128.874 51.0562 130.961 47.4833 132.019ZM80 97.034C80 97.5918 79.7784 98.1268 79.3839 98.5213C78.9894 98.9158 78.4544 99.1374 77.8966 99.1374H75.7931V101.241C75.7931 101.799 75.5715 102.334 75.177 102.728C74.7826 103.123 74.2475 103.344 73.6897 103.344C73.1318 103.344 72.5968 103.123 72.2023 102.728C71.8078 102.334 71.5862 101.799 71.5862 101.241V99.1374H69.4828C68.9249 99.1374 68.3899 98.9158 67.9954 98.5213C67.6009 98.1268 67.3793 97.5918 67.3793 97.034C67.3793 96.4761 67.6009 95.9411 67.9954 95.5466C68.3899 95.1522 68.9249 94.9306 69.4828 94.9306H71.5862V92.8272C71.5862 92.2693 71.8078 91.7343 72.2023 91.3399C72.5968 90.9454 73.1318 90.7238 73.6897 90.7238C74.2475 90.7238 74.7826 90.9454 75.177 91.3399C75.5715 91.7343 75.7931 92.2693 75.7931 92.8272V94.9306H77.8966C78.4544 94.9306 78.9894 95.1522 79.3839 95.5466C79.7784 95.9411 80 96.4761 80 97.034ZM52.6552 84.4136C52.6552 83.8557 52.8768 83.3207 53.2713 82.9263C53.6657 82.5318 54.2008 82.3102 54.7586 82.3102H58.9655V78.1034C58.9655 77.5455 59.1871 77.0105 59.5816 76.6161C59.9761 76.2216 60.5111 76 61.069 76C61.6268 76 62.1619 76.2216 62.5563 76.6161C62.9508 77.0105 63.1724 77.5455 63.1724 78.1034V82.3102H67.3793C67.9372 82.3102 68.4722 82.5318 68.8667 82.9263C69.2612 83.3207 69.4828 83.8557 69.4828 84.4136C69.4828 84.9714 69.2612 85.5065 68.8667 85.9009C68.4722 86.2954 67.9372 86.517 67.3793 86.517H63.1724V90.7238C63.1724 91.2816 62.9508 91.8166 62.5563 92.2111C62.1619 92.6056 61.6268 92.8272 61.069 92.8272C60.5111 92.8272 59.9761 92.6056 59.5816 92.2111C59.1871 91.8166 58.9655 91.2816 58.9655 90.7238V86.517H54.7586C54.2008 86.517 53.6657 86.2954 53.2713 85.9009C52.8768 85.5065 52.6552 84.9714 52.6552 84.4136Z" fill="#CC6EFC"/>
</g>
<path d="M22.65 46.105C21.92 46.105 21.26 45.98 20.67 45.73C20.09 45.48 19.63 45.12 19.29 44.65C18.95 44.18 18.775 43.625 18.765 42.985H21.015C21.045 43.415 21.195 43.755 21.465 44.005C21.745 44.255 22.125 44.38 22.605 44.38C23.095 44.38 23.48 44.265 23.76 44.035C24.04 43.795 24.18 43.485 24.18 43.105C24.18 42.795 24.085 42.54 23.895 42.34C23.705 42.14 23.465 41.985 23.175 41.875C22.895 41.755 22.505 41.625 22.005 41.485C21.325 41.285 20.77 41.09 20.34 40.9C19.92 40.7 19.555 40.405 19.245 40.015C18.945 39.615 18.795 39.085 18.795 38.425C18.795 37.805 18.95 37.265 19.26 36.805C19.57 36.345 20.005 35.995 20.565 35.755C21.125 35.505 21.765 35.38 22.485 35.38C23.565 35.38 24.44 35.645 25.11 36.175C25.79 36.695 26.165 37.425 26.235 38.365H23.925C23.905 38.005 23.75 37.71 23.46 37.48C23.18 37.24 22.805 37.12 22.335 37.12C21.925 37.12 21.595 37.225 21.345 37.435C21.105 37.645 20.985 37.95 20.985 38.35C20.985 38.63 21.075 38.865 21.255 39.055C21.445 39.235 21.675 39.385 21.945 39.505C22.225 39.615 22.615 39.745 23.115 39.895C23.795 40.095 24.35 40.295 24.78 40.495C25.21 40.695 25.58 40.995 25.89 41.395C26.2 41.795 26.355 42.32 26.355 42.97C26.355 43.53 26.21 44.05 25.92 44.53C25.63 45.01 25.205 45.395 24.645 45.685C24.085 45.965 23.42 46.105 22.65 46.105ZM28.2356 41.845C28.2356 40.985 28.4106 40.235 28.7606 39.595C29.1106 38.945 29.5956 38.445 30.2156 38.095C30.8356 37.735 31.5456 37.555 32.3456 37.555C33.3756 37.555 34.2256 37.815 34.8956 38.335C35.5756 38.845 36.0306 39.565 36.2606 40.495H33.9956C33.8756 40.135 33.6706 39.855 33.3806 39.655C33.1006 39.445 32.7506 39.34 32.3306 39.34C31.7306 39.34 31.2556 39.56 30.9056 40C30.5556 40.43 30.3806 41.045 30.3806 41.845C30.3806 42.635 30.5556 43.25 30.9056 43.69C31.2556 44.12 31.7306 44.335 32.3306 44.335C33.1806 44.335 33.7356 43.955 33.9956 43.195H36.2606C36.0306 44.095 35.5756 44.81 34.8956 45.34C34.2156 45.87 33.3656 46.135 32.3456 46.135C31.5456 46.135 30.8356 45.96 30.2156 45.61C29.5956 45.25 29.1106 44.75 28.7606 44.11C28.4106 43.46 28.2356 42.705 28.2356 41.845ZM46.1241 41.665C46.1241 41.965 46.1041 42.235 46.0641 42.475H39.9891C40.0391 43.075 40.2491 43.545 40.6191 43.885C40.9891 44.225 41.4441 44.395 41.9841 44.395C42.7641 44.395 43.3191 44.06 43.6491 43.39H45.9141C45.6741 44.19 45.2141 44.85 44.5341 45.37C43.8541 45.88 43.0191 46.135 42.0291 46.135C41.2291 46.135 40.5091 45.96 39.8691 45.61C39.2391 45.25 38.7441 44.745 38.3841 44.095C38.0341 43.445 37.8591 42.695 37.8591 41.845C37.8591 40.985 38.0341 40.23 38.3841 39.58C38.7341 38.93 39.2241 38.43 39.8541 38.08C40.4841 37.73 41.2091 37.555 42.0291 37.555C42.8191 37.555 43.5241 37.725 44.1441 38.065C44.7741 38.405 45.2591 38.89 45.5991 39.52C45.9491 40.14 46.1241 40.855 46.1241 41.665ZM43.9491 41.065C43.9391 40.525 43.7441 40.095 43.3641 39.775C42.9841 39.445 42.5191 39.28 41.9691 39.28C41.4491 39.28 41.0091 39.44 40.6491 39.76C40.2991 40.07 40.0841 40.505 40.0041 41.065H43.9491ZM43.6341 35.575V37.075L40.1841 35.5V33.79L43.6341 35.575ZM52.8619 37.57C53.8519 37.57 54.6519 37.885 55.2619 38.515C55.8719 39.135 56.1769 40.005 56.1769 41.125V46H54.0769V41.41C54.0769 40.75 53.9119 40.245 53.5819 39.895C53.2519 39.535 52.8019 39.355 52.2319 39.355C51.6519 39.355 51.1919 39.535 50.8519 39.895C50.5219 40.245 50.3569 40.75 50.3569 41.41V46H48.2569V37.69H50.3569V38.725C50.6369 38.365 50.9919 38.085 51.4219 37.885C51.8619 37.675 52.3419 37.57 52.8619 37.57ZM66.4989 41.665C66.4989 41.965 66.4789 42.235 66.4389 42.475H60.3639C60.4139 43.075 60.6239 43.545 60.9939 43.885C61.3639 44.225 61.8189 44.395 62.3589 44.395C63.1389 44.395 63.6939 44.06 64.0239 43.39H66.2889C66.0489 44.19 65.5889 44.85 64.9089 45.37C64.2289 45.88 63.3939 46.135 62.4039 46.135C61.6039 46.135 60.8839 45.96 60.2439 45.61C59.6139 45.25 59.1189 44.745 58.7589 44.095C58.4089 43.445 58.2339 42.695 58.2339 41.845C58.2339 40.985 58.4089 40.23 58.7589 39.58C59.1089 38.93 59.5989 38.43 60.2289 38.08C60.8589 37.73 61.5839 37.555 62.4039 37.555C63.1939 37.555 63.8989 37.725 64.5189 38.065C65.1489 38.405 65.6339 38.89 65.9739 39.52C66.3239 40.14 66.4989 40.855 66.4989 41.665ZM64.3239 41.065C64.3139 40.525 64.1189 40.095 63.7389 39.775C63.3589 39.445 62.8939 39.28 62.3439 39.28C61.8239 39.28 61.3839 39.44 61.0239 39.76C60.6739 40.07 60.4589 40.505 60.3789 41.065H64.3239ZM26.67 56.77C26.67 57.33 26.535 57.855 26.265 58.345C26.005 58.835 25.59 59.23 25.02 59.53C24.46 59.83 23.75 59.98 22.89 59.98H21.135V64H19.035V53.53H22.89C23.7 53.53 24.39 53.67 24.96 53.95C25.53 54.23 25.955 54.615 26.235 55.105C26.525 55.595 26.67 56.15 26.67 56.77ZM22.8 58.285C23.38 58.285 23.81 58.155 24.09 57.895C24.37 57.625 24.51 57.25 24.51 56.77C24.51 55.75 23.94 55.24 22.8 55.24H21.135V58.285H22.8ZM30.861 56.98C31.131 56.54 31.481 56.195 31.911 55.945C32.351 55.695 32.851 55.57 33.411 55.57V57.775H32.856C32.196 57.775 31.696 57.93 31.356 58.24C31.026 58.55 30.861 59.09 30.861 59.86V64H28.761V55.69H30.861V56.98ZM36.4904 54.7C36.1204 54.7 35.8104 54.585 35.5604 54.355C35.3204 54.115 35.2004 53.82 35.2004 53.47C35.2004 53.12 35.3204 52.83 35.5604 52.6C35.8104 52.36 36.1204 52.24 36.4904 52.24C36.8604 52.24 37.1654 52.36 37.4054 52.6C37.6554 52.83 37.7804 53.12 37.7804 53.47C37.7804 53.82 37.6554 54.115 37.4054 54.355C37.1654 54.585 36.8604 54.7 36.4904 54.7ZM37.5254 55.69V64H35.4254V55.69H37.5254ZM44.8052 55.57C45.7952 55.57 46.5952 55.885 47.2052 56.515C47.8152 57.135 48.1202 58.005 48.1202 59.125V64H46.0202V59.41C46.0202 58.75 45.8552 58.245 45.5252 57.895C45.1952 57.535 44.7452 57.355 44.1752 57.355C43.5952 57.355 43.1352 57.535 42.7952 57.895C42.4652 58.245 42.3002 58.75 42.3002 59.41V64H40.2002V55.69H42.3002V56.725C42.5802 56.365 42.9352 56.085 43.3652 55.885C43.8052 55.675 44.2852 55.57 44.8052 55.57ZM50.1772 59.845C50.1772 58.985 50.3522 58.235 50.7022 57.595C51.0522 56.945 51.5372 56.445 52.1572 56.095C52.7772 55.735 53.4872 55.555 54.2872 55.555C55.3172 55.555 56.1672 55.815 56.8372 56.335C57.5172 56.845 57.9722 57.565 58.2022 58.495H55.9372C55.8172 58.135 55.6122 57.855 55.3222 57.655C55.0422 57.445 54.6922 57.34 54.2722 57.34C53.6722 57.34 53.1972 57.56 52.8472 58C52.4972 58.43 52.3222 59.045 52.3222 59.845C52.3222 60.635 52.4972 61.25 52.8472 61.69C53.1972 62.12 53.6722 62.335 54.2722 62.335C55.1222 62.335 55.6772 61.955 55.9372 61.195H58.2022C57.9722 62.095 57.5172 62.81 56.8372 63.34C56.1572 63.87 55.3072 64.135 54.2872 64.135C53.4872 64.135 52.7772 63.96 52.1572 63.61C51.5372 63.25 51.0522 62.75 50.7022 62.11C50.3522 61.46 50.1772 60.705 50.1772 59.845ZM61.4057 54.7C61.0357 54.7 60.7257 54.585 60.4757 54.355C60.2357 54.115 60.1157 53.82 60.1157 53.47C60.1157 53.12 60.2357 52.83 60.4757 52.6C60.7257 52.36 61.0357 52.24 61.4057 52.24C61.7757 52.24 62.0807 52.36 62.3207 52.6C62.5707 52.83 62.6957 53.12 62.6957 53.47C62.6957 53.82 62.5707 54.115 62.3207 54.355C62.0807 54.585 61.7757 54.7 61.4057 54.7ZM62.4407 55.69V64H60.3407V55.69H62.4407ZM67.2155 56.89C67.4855 56.51 67.8555 56.195 68.3255 55.945C68.8055 55.685 69.3505 55.555 69.9605 55.555C70.6705 55.555 71.3105 55.73 71.8805 56.08C72.4605 56.43 72.9155 56.93 73.2455 57.58C73.5855 58.22 73.7555 58.965 73.7555 59.815C73.7555 60.665 73.5855 61.42 73.2455 62.08C72.9155 62.73 72.4605 63.235 71.8805 63.595C71.3105 63.955 70.6705 64.135 69.9605 64.135C69.3505 64.135 68.8105 64.01 68.3405 63.76C67.8805 63.51 67.5055 63.195 67.2155 62.815V67.96H65.1155V55.69H67.2155V56.89ZM71.6105 59.815C71.6105 59.315 71.5055 58.885 71.2955 58.525C71.0955 58.155 70.8255 57.875 70.4855 57.685C70.1555 57.495 69.7955 57.4 69.4055 57.4C69.0255 57.4 68.6655 57.5 68.3255 57.7C67.9955 57.89 67.7255 58.17 67.5155 58.54C67.3155 58.91 67.2155 59.345 67.2155 59.845C67.2155 60.345 67.3155 60.78 67.5155 61.15C67.7255 61.52 67.9955 61.805 68.3255 62.005C68.6655 62.195 69.0255 62.29 69.4055 62.29C69.7955 62.29 70.1555 62.19 70.4855 61.99C70.8255 61.79 71.0955 61.505 71.2955 61.135C71.5055 60.765 71.6105 60.325 71.6105 59.815ZM75.3415 59.815C75.3415 58.975 75.5065 58.23 75.8365 57.58C76.1765 56.93 76.6315 56.43 77.2015 56.08C77.7815 55.73 78.4265 55.555 79.1365 55.555C79.7565 55.555 80.2965 55.68 80.7565 55.93C81.2265 56.18 81.6015 56.495 81.8815 56.875V55.69H83.9965V64H81.8815V62.785C81.6115 63.175 81.2365 63.5 80.7565 63.76C80.2865 64.01 79.7415 64.135 79.1215 64.135C78.4215 64.135 77.7815 63.955 77.2015 63.595C76.6315 63.235 76.1765 62.73 75.8365 62.08C75.5065 61.42 75.3415 60.665 75.3415 59.815ZM81.8815 59.845C81.8815 59.335 81.7815 58.9 81.5815 58.54C81.3815 58.17 81.1115 57.89 80.7715 57.7C80.4315 57.5 80.0665 57.4 79.6765 57.4C79.2865 57.4 78.9265 57.495 78.5965 57.685C78.2665 57.875 77.9965 58.155 77.7865 58.525C77.5865 58.885 77.4865 59.315 77.4865 59.815C77.4865 60.315 77.5865 60.755 77.7865 61.135C77.9965 61.505 78.2665 61.79 78.5965 61.99C78.9365 62.19 79.2965 62.29 79.6765 62.29C80.0665 62.29 80.4315 62.195 80.7715 62.005C81.1115 61.805 81.3815 61.525 81.5815 61.165C81.7815 60.795 81.8815 60.355 81.8815 59.845ZM88.7475 52.9V64H86.6475V52.9H88.7475ZM99.1473 59.665C99.1473 59.965 99.1273 60.235 99.0873 60.475H93.0123C93.0623 61.075 93.2723 61.545 93.6423 61.885C94.0123 62.225 94.4673 62.395 95.0073 62.395C95.7873 62.395 96.3423 62.06 96.6723 61.39H98.9373C98.6973 62.19 98.2373 62.85 97.5573 63.37C96.8773 63.88 96.0423 64.135 95.0523 64.135C94.2523 64.135 93.5323 63.96 92.8923 63.61C92.2623 63.25 91.7673 62.745 91.4073 62.095C91.0573 61.445 90.8823 60.695 90.8823 59.845C90.8823 58.985 91.0573 58.23 91.4073 57.58C91.7573 56.93 92.2473 56.43 92.8773 56.08C93.5073 55.73 94.2323 55.555 95.0523 55.555C95.8423 55.555 96.5473 55.725 97.1673 56.065C97.7973 56.405 98.2823 56.89 98.6223 57.52C98.9723 58.14 99.1473 58.855 99.1473 59.665ZM96.9723 59.065C96.9623 58.525 96.7673 58.095 96.3873 57.775C96.0073 57.445 95.5423 57.28 94.9923 57.28C94.4723 57.28 94.0323 57.44 93.6723 57.76C93.3223 58.07 93.1073 58.505 93.0273 59.065H96.9723Z" fill="white"/>
<path d="M100.5 115C98.4233 115 96.3932 115.616 94.6665 116.77C92.9398 117.923 91.594 119.563 90.7993 121.482C90.0045 123.4 89.7966 125.512 90.2018 127.548C90.6069 129.585 91.6069 131.456 93.0754 132.925C94.5438 134.393 96.4148 135.393 98.4516 135.798C100.488 136.203 102.6 135.995 104.518 135.201C106.437 134.406 108.077 133.06 109.23 131.333C110.384 129.607 111 127.577 111 125.5C111 124.121 110.728 122.756 110.201 121.482C109.673 120.208 108.9 119.05 107.925 118.075C106.95 117.1 105.792 116.327 104.518 115.799C103.244 115.272 101.879 115 100.5 115ZM98.4 130.225V120.775L104.7 125.5L98.4 130.225Z" fill="white" fill-opacity="0.6"/>
</svg>
